<svg data-v-fde0c5aa="" xmlns="http://www.w3.org/2000/svg" viewBox="0 0 300 300" class="iconLeftSlogan"><!----><defs data-v-fde0c5aa=""><linearGradient data-v-fde0c5aa="" gradientTransform="rotate(25)" id="d56a04b8-fe11-4161-8a00-5c08f3f34d70" x1="0%" y1="0%" x2="100%" y2="0%"><stop data-v-fde0c5aa="" offset="0%" stop-color="#E98E0D" stop-opacity="1"></stop><stop data-v-fde0c5aa="" offset="100%" stop-color="#1536F1" stop-opacity="1"></stop></linearGradient></defs><rect data-v-fde0c5aa="" fill="url(#d56a04b8-fe11-4161-8a00-5c08f3f34d70)" x="0" y="0" width="300px" height="300px" class="logo-background-square"></rect><defs data-v-fde0c5aa=""><!----></defs><g data-v-fde0c5aa="" id="b39075df-7862-4b81-8475-5f07c68cf969" fill="#ffffff" transform="matrix(2.8774861064444193,0,0,2.8774861064444193,104.84594960702829,115.29678303849957)"><path d="M8.11 13.73L8.11 13.73Q7.70 13.71 7.55 13.47Q7.40 13.23 7.37 12.81Q7.34 12.39 7.40 11.81Q7.45 11.22 7.45 10.54L7.45 10.54Q7.46 9.19 7.55 8.07Q7.64 6.96 7.60 5.91L7.60 5.91Q7.60 5.82 7.60 5.76Q7.60 5.69 7.59 5.62L7.59 5.62Q7.52 5.85 7.43 6.15Q7.34 6.44 7.22 6.79L7.22 6.79Q6.97 7.56 6.73 8.37Q6.49 9.17 6.27 9.93Q6.04 10.69 5.84 11.34Q5.65 11.99 5.50 12.43L5.50 12.43Q5.35 12.87 5.20 13.08Q5.06 13.29 4.92 13.37Q4.77 13.45 4.63 13.44Q4.48 13.43 4.35 13.41L4.35 13.41Q4.29 12.95 4.14 12.32Q3.99 11.69 3.83 11.12L3.83 11.12Q3.64 10.45 3.40 9.75L3.40 9.75Q3.09 8.54 2.75 7.55Q2.41 6.55 2.21 5.91L2.21 5.91Q2.13 6.60 2.09 7.51Q2.05 8.41 2.04 9.31Q2.02 10.21 2.05 11.01Q2.08 11.81 2.13 12.30L2.13 12.30Q2.15 12.51 2.19 12.71L2.19 12.71Q2.21 12.89 2.26 13.08Q2.31 13.26 2.38 13.41L2.38 13.41Q2.31 13.47 2.21 13.51Q2.12 13.55 2.01 13.58L2.01 13.58Q1.89 13.62 1.75 13.64L1.75 13.64Q1.22 13.75 0.98 13.62Q0.74 13.48 0.68 13.07L0.68 13.07Q0.66 12.87 0.64 12.30Q0.63 11.74 0.64 11.01Q0.64 10.28 0.67 9.47Q0.70 8.67 0.75 7.97L0.75 7.97Q0.81 7.41 0.86 6.75L0.86 6.75Q0.92 6.18 0.97 5.43Q1.03 4.68 1.09 3.80L1.09 3.80Q1.13 3.72 1.23 3.66Q1.33 3.60 1.44 3.55L1.44 3.55Q1.56 3.50 1.71 3.47L1.71 3.47Q1.94 3.43 2.12 3.40L2.12 3.40Q2.27 3.38 2.40 3.36Q2.53 3.35 2.50 3.36L2.50 3.36Q2.68 3.73 2.78 3.97Q2.87 4.21 2.97 4.54Q3.08 4.87 3.23 5.40Q3.39 5.93 3.69 6.89L3.69 6.89Q4.10 8.22 4.40 9.20Q4.69 10.19 4.84 10.71L4.84 10.71Q4.94 10.53 5.03 10.32Q5.13 10.10 5.23 9.80Q5.33 9.50 5.45 9.10Q5.56 8.70 5.71 8.13L5.71 8.13Q5.91 7.52 6.11 6.81L6.11 6.81Q6.28 6.21 6.47 5.43Q6.67 4.66 6.85 3.83L6.85 3.83Q7.29 3.65 7.56 3.56Q7.83 3.47 7.98 3.42L7.98 3.42Q8.16 3.36 8.24 3.35L8.24 3.35Q8.33 3.36 8.41 3.43L8.41 3.43Q8.48 3.50 8.57 3.62Q8.67 3.75 8.78 3.99L8.78 3.99Q8.78 4.18 8.78 4.61Q8.78 5.03 8.78 5.58Q8.78 6.14 8.76 6.78Q8.75 7.42 8.74 8.07Q8.74 8.72 8.73 9.34Q8.72 9.95 8.71 10.43L8.71 10.43Q8.68 11.16 8.70 11.66Q8.72 12.17 8.78 12.50Q8.85 12.84 8.95 13.04Q9.05 13.25 9.20 13.37L9.20 13.37Q9.16 13.40 9.04 13.46Q8.93 13.52 8.76 13.58Q8.60 13.64 8.42 13.69Q8.24 13.73 8.11 13.73ZM14 11.87L14 11.87Q14.03 11.96 14.08 12.04L14.08 12.04Q14.12 12.11 14.20 12.17Q14.27 12.24 14.38 12.25L14.38 12.25Q14.29 12.44 14.19 12.51L14.19 12.51Q14.14 12.55 14.10 12.56L14.10 12.56Q13.97 12.61 13.73 12.61Q13.48 12.61 13.25 12.46L13.25 12.46Q13.17 12.39 13.10 12.25L13.10 12.25Q13.03 12.14 12.98 11.94Q12.93 11.74 12.91 11.43L12.91 11.43Q12.71 11.84 12.48 12.08Q12.24 12.32 12.00 12.43L12.00 12.43Q11.74 12.58 11.47 12.61L11.47 12.61Q11.13 12.63 10.82 12.49Q10.51 12.35 10.30 12.05Q10.09 11.76 9.98 11.33Q9.87 10.91 9.91 10.38L9.91 10.38Q9.95 9.82 10.13 9.38Q10.31 8.94 10.55 8.60Q10.80 8.26 11.07 8.02Q11.35 7.78 11.60 7.62Q11.85 7.46 12.04 7.39Q12.22 7.31 12.28 7.30L12.28 7.30Q12.43 7.26 12.54 7.27Q12.65 7.29 12.73 7.40L12.73 7.40Q12.76 7.44 12.80 7.49L12.80 7.49Q12.82 7.55 12.87 7.64Q12.91 7.72 12.93 7.83L12.93 7.83Q12.61 7.98 12.32 8.17Q12.03 8.35 11.79 8.61Q11.55 8.87 11.38 9.24Q11.20 9.61 11.10 10.14L11.10 10.14Q10.96 10.81 11.18 11.22Q11.39 11.63 11.76 11.57L11.76 11.57Q11.98 11.50 12.18 11.31L12.18 11.31Q12.36 11.14 12.56 10.81Q12.76 10.49 12.93 9.91L12.93 9.91Q13.00 9.09 13.05 8.62Q13.10 8.15 13.14 7.90L13.14 7.90Q13.19 7.62 13.22 7.52L13.22 7.52Q13.26 7.45 13.38 7.39Q13.51 7.33 13.66 7.29Q13.81 7.25 13.93 7.24Q14.05 7.23 14.10 7.25L14.10 7.25Q14.12 7.26 14.12 7.58Q14.12 7.90 14.10 8.39Q14.08 8.87 14.05 9.44Q14.03 10.01 14.01 10.51Q13.99 11.02 13.98 11.40Q13.97 11.77 14 11.87ZM18.88 8.37L18.88 8.37Q18.88 8.56 18.78 8.76Q18.68 8.96 18.53 9.13Q18.38 9.31 18.19 9.44Q18.01 9.57 17.84 9.60L17.84 9.60Q17.95 9.17 17.91 8.94Q17.87 8.71 17.77 8.60L17.77 8.60Q17.66 8.48 17.50 8.46L17.50 8.46Q17.25 8.46 17.03 8.74Q16.80 9.02 16.64 9.43Q16.47 9.83 16.38 10.29Q16.28 10.75 16.28 11.12L16.28 11.12Q16.27 11.38 16.30 11.62L16.30 11.62Q16.31 11.83 16.34 12.04Q16.38 12.26 16.45 12.39L16.45 12.39Q16.37 12.46 16.18 12.55Q16.00 12.65 15.80 12.67Q15.60 12.70 15.44 12.61Q15.29 12.51 15.27 12.20L15.27 12.20Q15.24 11.89 15.24 11.52Q15.23 11.14 15.24 10.77Q15.24 10.39 15.26 10.02Q15.27 9.65 15.30 9.34L15.30 9.34Q15.33 8.74 15.33 8.41Q15.33 8.08 15.31 7.78L15.31 7.78Q15.31 7.72 15.50 7.62Q15.68 7.52 15.91 7.44Q16.13 7.36 16.32 7.34Q16.52 7.33 16.52 7.42L16.52 7.42Q16.52 7.57 16.48 8.02Q16.45 8.46 16.39 8.94L16.39 8.94Q16.49 8.68 16.65 8.38Q16.80 8.08 17.01 7.82Q17.21 7.56 17.47 7.39Q17.73 7.22 18.05 7.22L18.05 7.22Q18.29 7.22 18.45 7.37Q18.61 7.52 18.70 7.71Q18.80 7.90 18.84 8.09Q18.88 8.29 18.88 8.37ZM22.08 9.30L22.08 9.30Q22.37 9.42 22.63 9.69Q22.89 9.95 22.96 10.49L22.96 10.49Q23.01 10.95 23.11 11.32Q23.20 11.69 23.38 11.98Q23.56 12.28 23.85 12.50Q24.14 12.73 24.61 12.89L24.61 12.89Q24.49 13.00 24.32 13.07Q24.14 13.14 23.99 13.17L23.99 13.17Q23.82 13.22 23.63 13.22L23.63 13.22Q23.17 13.26 22.89 13.10Q22.60 12.95 22.44 12.65Q22.27 12.35 22.19 11.95Q22.11 11.55 22.07 11.13L22.07 11.13Q22.05 10.95 22.03 10.76Q22.00 10.57 21.93 10.39Q21.86 10.21 21.75 10.06Q21.63 9.91 21.45 9.83L21.45 9.83Q21.15 10.06 20.90 10.23Q20.64 10.40 20.45 10.51L20.45 10.51Q20.47 11.25 20.53 11.73Q20.59 12.21 20.70 12.37L20.70 12.37Q20.60 12.44 20.51 12.49Q20.41 12.54 20.34 12.56L20.34 12.56Q20.25 12.61 20.17 12.62L20.17 12.62Q19.89 12.70 19.68 12.60Q19.47 12.50 19.46 12.06L19.46 12.06L19.37 4.07Q19.37 3.96 19.58 3.85Q19.80 3.73 20.06 3.66Q20.32 3.60 20.53 3.60Q20.74 3.60 20.73 3.72L20.73 3.72Q20.69 4.66 20.64 5.50Q20.60 6.33 20.58 6.97L20.58 6.97Q20.54 7.72 20.51 8.34L20.51 8.34Q20.48 8.71 20.47 9.05Q20.47 9.39 20.45 9.71L20.45 9.71Q20.71 9.50 21 9.26Q21.29 9.01 21.55 8.71Q21.81 8.41 21.98 8.06Q22.16 7.71 22.19 7.31L22.19 7.31Q22.34 7.21 22.50 7.13Q22.65 7.05 22.78 7.01L22.78 7.01Q22.93 6.96 23.05 6.96L23.05 6.96Q23.37 6.95 23.42 7.10L23.42 7.10Q23.46 7.21 23.41 7.42Q23.37 7.63 23.21 7.92Q23.05 8.22 22.78 8.57Q22.50 8.91 22.08 9.30ZM26.10 12.71L26.10 12.71Q25.14 12.71 24.62 12.07Q24.10 11.43 24.10 10.39L24.10 10.39Q24.10 9.67 24.32 9.03Q24.53 8.39 24.88 7.93Q25.24 7.46 25.71 7.20Q26.18 6.93 26.70 6.93L26.70 6.93Q27.21 6.93 27.56 7.29Q27.92 7.66 27.92 8.33L27.92 8.33Q27.92 8.76 27.73 9.19Q27.54 9.63 27.23 9.96Q26.92 10.29 26.55 10.50Q26.18 10.71 25.84 10.71L25.84 10.71Q25.62 10.71 25.47 10.65Q25.32 10.60 25.20 10.49L25.20 10.49Q25.24 11.27 25.54 11.57Q25.84 11.88 26.32 11.88L26.32 11.88Q26.65 11.88 26.90 11.74Q27.15 11.61 27.33 11.43Q27.51 11.25 27.62 11.07Q27.73 10.88 27.77 10.79L27.77 10.79Q27.81 10.71 27.91 10.71Q28.01 10.71 28.01 10.87L28.01 10.87Q28.01 11.02 27.91 11.33Q27.81 11.63 27.58 11.94Q27.34 12.25 26.98 12.48Q26.62 12.71 26.10 12.71ZM26.73 7.52L26.73 7.52Q26.65 7.52 26.42 7.69Q26.20 7.86 25.94 8.19Q25.69 8.52 25.48 8.98Q25.27 9.43 25.21 10.01L25.21 10.01Q26.03 9.82 26.51 9.41Q26.99 9.00 26.99 8.20L26.99 8.20Q26.99 7.81 26.89 7.66Q26.80 7.52 26.73 7.52ZM33.95 6.48L33.95 6.48Q33.80 6.45 33.54 6.43Q33.29 6.40 33.03 6.38L33.03 6.38Q32.73 6.37 32.39 6.37L32.39 6.37Q32.05 6.34 31.53 6.36Q31.02 6.38 30.46 6.38L30.46 6.38Q30.45 6.74 30.41 7.11Q30.38 7.48 30.35 7.83L30.35 7.83Q30.28 8.49 30.24 9.17Q30.19 9.86 30.19 10.47Q30.19 11.09 30.26 11.59Q30.34 12.09 30.54 12.37L30.54 12.37Q30.38 12.50 30.19 12.56Q30.00 12.62 29.85 12.65L29.85 12.65Q29.67 12.69 29.49 12.69L29.49 12.69Q29.33 12.69 29.22 12.58Q29.11 12.47 29.09 12.20L29.09 12.20Q29.07 11.73 29.09 11.26Q29.11 10.79 29.14 10.27Q29.18 9.75 29.22 9.15Q29.26 8.56 29.30 7.85L29.30 7.85Q29.34 7.11 29.34 6.41L29.34 6.41Q28.82 6.43 28.46 6.43Q28.11 6.43 28.07 6.41L28.07 6.41Q28.03 6.38 27.97 6.29L27.97 6.29Q27.92 6.21 27.83 6.04Q27.74 5.88 27.60 5.58L27.60 5.58Q27.86 5.58 28.17 5.58Q28.48 5.58 28.74 5.56L28.74 5.56Q29.04 5.55 29.34 5.54L29.34 5.54Q29.33 5.32 29.33 5.07L29.33 5.07Q29.31 4.88 29.31 4.64Q29.31 4.40 29.30 4.20L29.30 4.20Q29.30 4.12 29.50 4.00Q29.70 3.88 29.93 3.79Q30.16 3.69 30.36 3.66Q30.56 3.64 30.56 3.76L30.56 3.76Q30.56 3.88 30.55 4.35Q30.54 4.83 30.52 5.50L30.52 5.50Q30.65 5.50 30.72 5.48L30.72 5.48Q31.45 5.46 31.89 5.42Q32.33 5.39 32.62 5.41Q32.91 5.44 33.13 5.55Q33.35 5.66 33.62 5.91L33.62 5.91Q33.71 5.99 33.78 6.08L33.78 6.08Q33.85 6.17 33.90 6.27Q33.95 6.37 33.95 6.48ZM35.52 8.00L35.52 8.00Q35.63 8.08 35.66 8.22Q35.68 8.37 35.68 8.51Q35.67 8.65 35.64 8.79Q35.62 8.93 35.62 9.01L35.62 9.01Q35.45 8.96 35.12 8.94Q34.78 8.93 34.44 8.91L34.44 8.91L33.59 8.91Q33.14 8.94 32.73 8.98L32.73 8.98Q32.38 9.02 32.03 9.08Q31.69 9.13 31.51 9.24L31.51 9.24Q31.40 9.15 31.36 8.89Q31.32 8.64 31.42 8.31L31.42 8.31Q31.65 8.24 31.96 8.19Q32.28 8.13 32.55 8.09L32.55 8.09Q32.88 8.04 33.21 8.00L33.21 8.00Q34.11 7.85 34.70 7.83Q35.29 7.82 35.52 8.00ZM36.82 9.60L36.82 9.60Q36.65 9.65 36.48 9.58Q36.31 9.50 36.18 9.34Q36.04 9.17 35.96 8.96Q35.89 8.74 35.89 8.49L35.89 8.49Q36.07 8.46 36.27 8.43Q36.48 8.39 36.65 8.37L36.65 8.37Q36.86 8.34 37.05 8.31L37.05 8.31Q37.06 7.52 37.08 6.80Q37.11 6.08 37.13 5.52Q37.15 4.95 37.17 4.56Q37.19 4.17 37.20 4.03L37.20 4.03Q37.20 3.96 37.27 3.90L37.27 3.90Q37.38 3.81 37.59 3.66Q37.80 3.51 38.08 3.39L38.08 3.39Q38.31 3.29 38.38 3.45Q38.46 3.61 38.46 4.05L38.46 4.05Q38.43 4.66 38.40 5.70Q38.38 6.74 38.35 8.15L38.35 8.15Q38.57 8.12 38.77 8.11Q38.98 8.09 39.21 8.08L39.21 8.08Q39.84 8.05 40.43 8.01Q41.03 7.97 41.48 8.01L41.48 8.01Q41.55 6.06 41.52 5.08Q41.49 4.10 41.49 3.92L41.49 3.92Q41.49 3.84 41.67 3.73Q41.85 3.62 42.06 3.53Q42.27 3.45 42.45 3.41Q42.63 3.38 42.64 3.43L42.64 3.43Q42.66 3.53 42.65 3.91Q42.64 4.29 42.64 4.98Q42.63 5.67 42.64 6.70Q42.64 7.72 42.68 9.09L42.68 9.09Q42.66 9.72 42.66 10.40L42.66 10.40Q42.66 10.99 42.68 11.72Q42.71 12.44 42.81 13.18L42.81 13.18Q42.63 13.33 42.42 13.41Q42.22 13.49 42.03 13.55L42.03 13.55Q41.81 13.60 41.59 13.63L41.59 13.63Q41.47 13.64 41.39 13.58Q41.32 13.52 41.29 13.43Q41.26 13.34 41.25 13.25Q41.25 13.15 41.25 13.07L41.25 13.07Q41.25 12.89 41.25 12.74Q41.26 12.58 41.28 12.48L41.28 12.48Q41.30 11.89 41.34 11.06Q41.38 10.23 41.43 9.20L41.43 9.20Q41.33 9.19 41.25 9.18Q41.17 9.17 41.06 9.16L41.06 9.16Q40.44 9.12 39.72 9.16Q39.01 9.20 38.32 9.30L38.32 9.30Q38.31 9.97 38.32 10.56Q38.34 11.16 38.36 11.64Q38.38 12.13 38.40 12.48Q38.43 12.82 38.46 12.99L38.46 12.99Q38.47 13.13 38.42 13.18L38.42 13.18Q38.36 13.25 38.26 13.36Q38.16 13.47 38.00 13.57Q37.84 13.67 37.63 13.75Q37.41 13.82 37.12 13.82L37.12 13.82Q36.98 13.82 36.98 13.70L36.98 13.70Q36.98 13.52 36.99 13.14Q37.00 12.76 37.00 12.21Q37.01 11.66 37.02 10.99Q37.02 10.31 37.04 9.54L37.04 9.54Q36.97 9.56 36.92 9.57Q36.87 9.58 36.82 9.60ZM47.04 7.48L47.04 7.48Q47.04 7.33 47.23 7.25Q47.41 7.18 47.63 7.18Q47.84 7.18 48.02 7.25Q48.19 7.33 48.18 7.45L48.18 7.45Q48.17 7.55 48.15 7.83Q48.14 8.11 48.12 8.49Q48.10 8.87 48.07 9.31Q48.04 9.75 48.02 10.17Q48.00 10.58 48.00 10.94Q47.99 11.29 47.99 11.48L47.99 11.48Q47.99 11.73 48.02 11.94L48.02 11.94Q48.04 12.11 48.08 12.28Q48.13 12.46 48.21 12.52L48.21 12.52Q48.10 12.56 47.98 12.58Q47.87 12.59 47.77 12.61L47.77 12.61Q47.66 12.62 47.55 12.62L47.55 12.62Q47.32 12.62 47.16 12.52Q47.00 12.43 47.00 12.13L47.00 12.13Q47.00 11.98 47.02 11.69Q47.04 11.40 47.07 11.07L47.07 11.07Q46.98 11.36 46.84 11.66Q46.70 11.96 46.50 12.20Q46.31 12.43 46.06 12.58Q45.81 12.73 45.50 12.73L45.50 12.73Q45.14 12.73 44.85 12.58Q44.56 12.43 44.34 12.15Q44.12 11.87 44.01 11.46Q43.90 11.05 43.93 10.51L43.93 10.51Q43.93 10.10 43.94 9.64L43.94 9.64Q43.96 9.24 43.98 8.72Q44.01 8.20 44.08 7.64L44.08 7.64Q44.09 7.59 44.27 7.51Q44.45 7.42 44.67 7.37Q44.88 7.31 45.09 7.33Q45.29 7.34 45.39 7.49L45.39 7.49Q45.32 7.74 45.25 8.07Q45.19 8.41 45.13 8.76Q45.08 9.12 45.05 9.46Q45.02 9.80 45.02 10.09L45.02 10.09Q45.02 10.35 45.05 10.66Q45.08 10.96 45.15 11.23Q45.23 11.50 45.37 11.68Q45.51 11.85 45.75 11.85L45.75 11.85Q46.01 11.85 46.20 11.63Q46.40 11.40 46.54 11.05Q46.68 10.69 46.77 10.23Q46.87 9.78 46.93 9.32Q46.99 8.87 47.01 8.46Q47.03 8.04 47.04 7.75L47.04 7.75L47.04 7.48ZM49.31 4.05L49.31 4.05Q49.42 3.90 49.55 3.79Q49.68 3.68 49.82 3.61L49.82 3.61Q49.97 3.54 50.13 3.50L50.13 3.50Q50.26 3.47 50.37 3.47L50.37 3.47Q50.46 3.47 50.55 3.49Q50.64 3.50 50.70 3.55L50.70 3.55Q50.67 4.21 50.65 4.67Q50.63 5.13 50.61 5.47Q50.59 5.81 50.57 6.08Q50.56 6.34 50.54 6.62Q50.52 6.89 50.49 7.21Q50.46 7.53 50.44 7.98L50.44 7.98Q50.41 8.27 50.39 8.57Q50.38 8.86 50.37 9.16L50.37 9.16Q50.49 8.82 50.67 8.45Q50.86 8.08 51.11 7.78Q51.35 7.48 51.67 7.28Q51.98 7.08 52.35 7.08L52.35 7.08Q52.87 7.08 53.18 7.38Q53.50 7.68 53.66 8.11Q53.83 8.54 53.87 9.02Q53.92 9.50 53.92 9.87L53.92 9.87Q53.92 10.23 53.83 10.71Q53.74 11.20 53.52 11.64Q53.29 12.09 52.92 12.40Q52.55 12.71 51.99 12.71L51.99 12.71Q51.60 12.71 51.32 12.55Q51.05 12.39 50.87 12.17Q50.70 11.95 50.62 11.73Q50.54 11.51 50.54 11.42L50.54 11.42Q50.54 11.32 50.61 11.19Q50.68 11.06 50.78 10.94Q50.87 10.83 50.98 10.75Q51.09 10.68 51.16 10.69L51.16 10.69Q51.13 11.14 51.22 11.38Q51.31 11.62 51.43 11.73L51.43 11.73Q51.58 11.87 51.76 11.88L51.76 11.88Q52.02 11.88 52.22 11.63Q52.42 11.39 52.55 11.03Q52.69 10.68 52.77 10.26Q52.84 9.84 52.84 9.52L52.84 9.52Q52.84 9.27 52.81 8.99Q52.77 8.71 52.71 8.47Q52.64 8.23 52.51 8.08Q52.39 7.93 52.21 7.93L52.21 7.93Q51.91 7.93 51.58 8.27Q51.26 8.61 50.98 9.17Q50.71 9.72 50.53 10.42Q50.35 11.12 50.37 11.84L50.37 11.84Q50.37 12.03 50.39 12.17Q50.41 12.32 50.44 12.43L50.44 12.43Q50.11 12.56 49.92 12.59L49.92 12.59Q49.81 12.62 49.74 12.61L49.74 12.61Q49.55 12.61 49.42 12.50Q49.30 12.39 49.27 12.03L49.27 12.03Q49.26 11.91 49.26 11.35Q49.26 10.80 49.26 10.01Q49.26 9.23 49.27 8.31Q49.27 7.40 49.28 6.55Q49.29 5.70 49.29 5.02Q49.30 4.35 49.31 4.05Z"></path></g><defs data-v-fde0c5aa=""><!----></defs><g data-v-fde0c5aa="" id="c5b7409b-f4f9-40e2-bc2d-381a14a6d724" stroke="none" fill="#ffffff" transform="matrix(1.0998596291121607,0,0,1.0998596291121607,11.843595172981292,95.00702064220772)"><path d="M74.3 70.2l-3.1-46.6c0-1.2-.9-2.2-2.1-2.2H30.8c-1.2 0-2.1.9-2.1 2.1l-3.1 46.7h48.7zM74.4 72.3H25.6v4.2c0 1.2.9 2.1 2.1 2.1h44.6c1.2 0 2.1-.9 2.1-2.1v-4.2zm-41.9 4.8c-.9 0-1.7-.8-1.7-1.7s.8-1.7 1.7-1.7c.9 0 1.7.8 1.7 1.7s-.7 1.7-1.7 1.7zm6.3 0c-.9 0-1.7-.8-1.7-1.7s.8-1.7 1.7-1.7c.9 0 1.7.8 1.7 1.7s-.8 1.7-1.7 1.7z"></path></g><defs data-v-fde0c5aa=""><!----></defs><g data-v-fde0c5aa="" id="6a550164-7214-4bf9-a18c-ac50a49ac789" fill="#ffffff" transform="matrix(0.40218989743223976,0,0,0.40218989743223976,106.520321086086,163.89728803842078)"><path d="M0.38 12.39C0.38 12.63 0.38 12.68 0.57 12.68C0.74 12.68 1.06 12.64 1.64 12.64C2.25 12.64 2.80 12.68 2.95 12.68C3.12 12.68 3.12 12.61 3.12 12.40C3.12 12.24 3.12 12.18 2.95 12.18L1.88 12.18C1.88 12.18 1.86 12.18 1.86 12.17C1.88 11.87 2.65 9.90 3.00 9.02C3.07 8.83 3.08 8.79 3.29 8.79L6.12 8.79C6.26 8.79 6.26 8.81 6.33 9.03C6.59 9.77 7.31 11.89 7.31 12.17C7.31 12.18 7.29 12.18 7.29 12.18L6.52 12.18C6.30 12.18 6.29 12.19 6.29 12.39C6.29 12.63 6.30 12.68 6.47 12.68C6.79 12.68 7.66 12.64 8.08 12.64C8.50 12.64 9.17 12.68 9.38 12.68C9.52 12.68 9.53 12.61 9.53 12.40C9.53 12.24 9.52 12.18 9.38 12.18L8.89 12.18C8.79 12.18 7.77 9.34 7.21 7.78L5.53 3.07C5.52 3.00 5.45 2.94 5.36 2.94C5.24 2.94 5.14 3.16 5.05 3.35C4.90 3.71 4.66 3.84 4.55 4.13L3.07 7.57C2.88 8.01 1.18 12.18 1.05 12.18L0.63 12.18C0.41 12.18 0.38 12.19 0.38 12.39ZM3.28 8.33C3.28 8.30 3.30 8.23 3.35 8.13L4.72 4.77C4.76 4.66 4.79 4.61 4.82 4.61C4.83 4.61 4.84 4.63 4.89 4.77L6.05 8.18C6.08 8.25 6.09 8.29 6.09 8.32C6.09 8.36 6.06 8.37 5.96 8.37L3.46 8.37C3.28 8.37 3.28 8.34 3.28 8.33ZM17.50 5.77C17.50 9.07 22.48 8.20 22.48 10.65C22.48 11.59 21.64 12.31 20.66 12.31C19.84 12.31 18.24 11.83 18.21 11.47L18.13 10.15C18.12 9.97 18.05 9.91 17.86 9.91L17.79 9.91C17.58 9.91 17.58 10.00 17.58 10.12C17.58 10.32 17.70 11.66 17.72 12.17C17.74 12.38 19.00 12.85 20.54 12.85C22.11 12.85 23.72 11.87 23.72 10.11C23.72 6.79 18.75 7.87 18.75 5.32C18.75 4.31 19.53 3.56 20.57 3.56C21.59 3.56 22.68 4.58 22.68 4.89C22.68 5.01 22.64 5.73 22.64 5.78C22.64 5.92 22.68 5.99 22.95 5.99C23.18 5.99 23.20 5.94 23.20 5.75C23.20 5.04 23.28 3.68 23.28 3.53C23.28 3.30 23.24 3.29 22.97 3.29C22.75 3.29 22.74 3.32 22.72 3.53C22.72 3.61 22.71 3.78 22.67 3.78C22.61 3.78 22.53 3.74 22.46 3.68C21.66 3.14 21.04 3.08 20.54 3.08C19.01 3.08 17.50 4.17 17.50 5.77ZM31.89 5.77C31.89 9.07 36.88 8.20 36.88 10.65C36.88 11.59 36.04 12.31 35.06 12.31C34.23 12.31 32.63 11.83 32.61 11.47L32.52 10.15C32.51 9.97 32.44 9.91 32.26 9.91L32.19 9.91C31.98 9.91 31.98 10.00 31.98 10.12C31.98 10.32 32.09 11.66 32.12 12.17C32.13 12.38 33.39 12.85 34.93 12.85C36.50 12.85 38.11 11.87 38.11 10.11C38.11 6.79 33.14 7.87 33.14 5.32C33.14 4.31 33.92 3.56 34.96 3.56C35.98 3.56 37.07 4.58 37.07 4.89C37.07 5.01 37.03 5.73 37.03 5.78C37.03 5.92 37.07 5.99 37.34 5.99C37.58 5.99 37.59 5.94 37.59 5.75C37.59 5.04 37.67 3.68 37.67 3.53C37.67 3.30 37.63 3.29 37.37 3.29C37.14 3.29 37.13 3.32 37.11 3.53C37.11 3.61 37.10 3.78 37.06 3.78C37.00 3.78 36.92 3.74 36.85 3.68C36.05 3.14 35.43 3.08 34.93 3.08C33.40 3.08 31.89 4.17 31.89 5.77ZM46.07 12.39C46.07 12.63 46.10 12.68 46.30 12.68C46.62 12.68 47.59 12.64 48.01 12.64C48.43 12.64 52.93 12.68 53.26 12.68C53.38 12.68 53.54 12.66 53.54 12.49C53.54 12.07 53.58 11.23 53.58 10.53C53.58 10.39 53.42 10.39 53.30 10.39C53.19 10.39 53.06 10.39 53.06 10.51C53.05 11.06 53.05 11.41 53.02 11.76C52.99 12.01 52.99 12.04 52.89 12.04C52.74 12.04 50.11 12.08 48.61 12.08C48.54 12.08 48.50 10.11 48.45 8.26C48.45 8.06 48.50 8.09 48.64 8.09L50.92 8.09C51.62 8.09 51.65 8.20 51.65 8.30L51.65 9.00C51.65 9.14 51.83 9.14 51.94 9.14C52.04 9.14 52.16 9.13 52.16 9.02C52.16 8.83 52.14 8.33 52.14 7.83C52.14 7.32 52.16 6.83 52.16 6.71C52.16 6.59 52.02 6.58 51.93 6.58C51.81 6.58 51.65 6.59 51.65 6.72L51.65 7.45C51.65 7.62 51.20 7.63 50.92 7.63L48.58 7.63C48.47 7.63 48.45 7.63 48.45 7.45C48.44 6.75 48.43 6.06 48.43 5.46C48.43 5.12 48.43 3.71 48.51 3.71C49.74 3.71 52.25 3.75 52.25 3.81C52.25 3.99 52.21 4.83 52.21 4.89C52.21 5.04 52.28 5.10 52.46 5.10C52.65 5.10 52.72 5.08 52.72 4.94C52.72 3.85 52.78 3.36 52.78 3.09C52.78 2.91 52.70 2.90 52.50 2.90C52.30 2.90 52.30 2.95 52.28 3.11C52.26 3.25 52.33 3.25 51.42 3.25C50.81 3.25 48.66 3.29 47.89 3.29C47.40 3.29 46.47 3.25 46.37 3.25C46.24 3.25 46.19 3.30 46.19 3.49C46.19 3.72 46.26 3.74 46.42 3.74L47.08 3.74C47.14 3.74 47.21 4.79 47.21 5.71C47.21 5.80 47.26 8.27 47.26 9.83L47.26 11.17C47.26 11.84 47.24 12.18 47.21 12.18L46.35 12.18C46.13 12.18 46.07 12.21 46.07 12.39ZM61.47 12.39C61.47 12.63 61.50 12.68 61.70 12.68C61.94 12.68 62.44 12.64 62.86 12.64C63.28 12.64 63.77 12.68 64.09 12.68C64.26 12.68 64.29 12.61 64.29 12.40C64.29 12.24 64.26 12.18 64.09 12.18L63.13 12.18C63.07 12.18 63.06 11.54 63.06 10.79C63.06 8.96 63.10 6.13 63.17 4.28C63.20 3.88 63.22 3.91 63.36 4.27L66.63 12.32C66.72 12.54 66.79 12.74 66.91 12.74C67.00 12.74 67.07 12.63 67.16 12.45C67.49 11.79 67.68 11.75 67.94 11.09L70.53 4.47C70.66 4.16 70.70 4.02 70.71 4.47C70.74 5.66 70.78 8.47 70.78 9.74C70.78 10.99 70.74 12.18 70.69 12.18L70.06 12.18C69.83 12.18 69.76 12.19 69.76 12.39C69.76 12.63 69.79 12.68 69.99 12.68C70.18 12.68 70.88 12.64 71.48 12.64C71.90 12.64 72.66 12.68 72.98 12.68C73.15 12.68 73.18 12.61 73.18 12.40C73.18 12.22 73.12 12.18 72.95 12.18L72.23 12.18C72.11 12.18 72.02 8.44 72.02 6.03L72.02 4.77C72.02 4.17 72.04 3.77 72.09 3.70L72.74 3.70C72.97 3.70 73.01 3.68 73.01 3.49C73.01 3.25 73.00 3.19 72.80 3.19C72.48 3.19 71.79 3.23 71.37 3.23L70.70 3.23C70.48 3.23 70.45 3.29 70.34 3.58L67.59 10.72C67.51 10.95 67.48 11.02 67.37 10.74L64.43 3.40C64.36 3.22 64.30 3.19 64.16 3.19C64.08 3.19 63.59 3.23 63.28 3.23C62.78 3.23 61.92 3.19 61.73 3.19C61.59 3.19 61.59 3.26 61.59 3.47C61.59 3.64 61.59 3.70 61.73 3.70L62.43 3.70C62.69 3.70 62.69 3.72 62.69 3.84C62.69 4.82 62.48 9.94 62.44 10.79C62.40 11.55 62.40 12.18 62.34 12.18L61.77 12.18C61.54 12.18 61.47 12.19 61.47 12.39ZM81.07 3.51C81.07 3.75 81.16 3.79 81.33 3.79L82.18 3.77C82.24 3.77 82.29 5.52 82.29 7.11L82.29 11.63C82.29 11.93 82.28 12.18 82.25 12.18L81.52 12.18C81.30 12.18 81.23 12.19 81.23 12.39C81.23 12.63 81.26 12.68 81.45 12.68C81.58 12.68 82.53 12.64 82.95 12.64C83.13 12.64 83.65 12.67 84.29 12.67C85.85 12.67 88.26 12.43 88.26 10.23C88.26 8.27 86.44 7.94 85.75 7.84C85.67 7.83 85.65 7.83 85.65 7.81C85.65 7.80 85.69 7.78 85.76 7.76C86.41 7.52 87.85 6.90 87.85 5.54C87.85 3.81 86.38 3.25 84.70 3.25C84.13 3.25 83.52 3.29 82.98 3.29C82.56 3.29 81.55 3.26 81.33 3.26C81.14 3.26 81.07 3.28 81.07 3.51ZM83.52 8.19C83.52 8.12 83.52 8.08 83.64 8.08L84.11 8.08C84.73 8.08 85.37 8.09 85.75 8.22C86.62 8.51 86.94 9.16 86.94 10.14C86.94 11.17 86.48 12.18 84.46 12.18L83.62 12.18C83.54 12.18 83.52 9.02 83.52 8.19ZM83.52 7.59L83.52 6.92C83.52 5.87 83.54 3.71 83.58 3.68C83.64 3.65 83.94 3.63 84.15 3.63C85.57 3.63 86.59 4.41 86.59 5.77C86.59 6.92 85.86 7.46 85.23 7.66C85.15 7.69 85.05 7.70 84.97 7.70C84.88 7.70 84.74 7.69 84.50 7.69L83.71 7.69C83.52 7.69 83.52 7.67 83.52 7.59ZM96.36 12.39C96.36 12.63 96.39 12.68 96.59 12.68C96.91 12.68 97.87 12.64 98.29 12.64C98.71 12.64 103.07 12.68 103.39 12.68C103.66 12.68 103.73 12.66 103.74 12.49C103.80 12.08 104.03 10.72 104.03 10.60C104.03 10.47 103.88 10.44 103.71 10.43C103.61 10.42 103.53 10.46 103.52 10.56L103.35 11.76C103.31 12.05 103.29 12.03 103.07 12.04C102.91 12.05 100.41 12.12 98.98 12.12C98.94 12.12 98.90 11.38 98.90 10.54L98.90 6.66C98.90 5.40 98.91 3.70 99.01 3.70L99.99 3.70C100.23 3.70 100.25 3.63 100.25 3.44C100.25 3.23 100.24 3.19 100.00 3.19C99.68 3.19 98.74 3.23 98.32 3.23C97.90 3.23 96.96 3.19 96.74 3.19C96.52 3.19 96.46 3.22 96.46 3.44C96.46 3.65 96.50 3.70 96.70 3.70L97.52 3.70C97.57 3.70 97.59 4.23 97.59 4.90L97.59 8.13C97.59 10.07 97.57 12.18 97.48 12.18L96.64 12.18C96.42 12.18 96.36 12.21 96.36 12.39ZM111.65 12.39C111.65 12.63 111.68 12.68 111.87 12.68C112.20 12.68 113.16 12.64 113.58 12.64C114.00 12.64 118.51 12.68 118.83 12.68C118.96 12.68 119.11 12.66 119.11 12.49C119.11 12.07 119.15 11.23 119.15 10.53C119.15 10.39 119.00 10.39 118.87 10.39C118.76 10.39 118.64 10.39 118.64 10.51C118.62 11.06 118.62 11.41 118.59 11.76C118.57 12.01 118.57 12.04 118.47 12.04C118.31 12.04 115.68 12.08 114.18 12.08C114.11 12.08 114.07 10.11 114.03 8.26C114.03 8.06 114.07 8.09 114.21 8.09L116.49 8.09C117.19 8.09 117.22 8.20 117.22 8.30L117.22 9.00C117.22 9.14 117.40 9.14 117.52 9.14C117.61 9.14 117.74 9.13 117.74 9.02C117.74 8.83 117.71 8.33 117.71 7.83C117.71 7.32 117.74 6.83 117.74 6.71C117.74 6.59 117.60 6.58 117.50 6.58C117.39 6.58 117.22 6.59 117.22 6.72L117.22 7.45C117.22 7.62 116.77 7.63 116.49 7.63L114.16 7.63C114.04 7.63 114.03 7.63 114.03 7.45C114.02 6.75 114.00 6.06 114.00 5.46C114.00 5.12 114.00 3.71 114.09 3.71C115.32 3.71 117.82 3.75 117.82 3.81C117.82 3.99 117.78 4.83 117.78 4.89C117.78 5.04 117.85 5.10 118.03 5.10C118.23 5.10 118.30 5.08 118.30 4.94C118.30 3.85 118.36 3.36 118.36 3.09C118.36 2.91 118.27 2.90 118.08 2.90C117.88 2.90 117.88 2.95 117.85 3.11C117.84 3.25 117.91 3.25 117.00 3.25C116.38 3.25 114.24 3.29 113.47 3.29C112.98 3.29 112.04 3.25 111.94 3.25C111.82 3.25 111.76 3.30 111.76 3.49C111.76 3.72 111.83 3.74 112.00 3.74L112.66 3.74C112.71 3.74 112.78 4.79 112.78 5.71C112.78 5.80 112.84 8.27 112.84 9.83L112.84 11.17C112.84 11.84 112.81 12.18 112.78 12.18L111.93 12.18C111.71 12.18 111.65 12.21 111.65 12.39ZM136.50 3.44C136.50 3.68 136.58 3.70 136.75 3.70L137.16 3.70C137.28 3.70 139.54 7.74 139.94 8.50C140 8.60 140.04 8.65 140.04 8.81C140.04 10.50 140.03 12.18 139.90 12.18L139.19 12.18C138.96 12.18 138.92 12.19 138.92 12.39C138.92 12.63 138.94 12.68 139.13 12.68C139.33 12.68 140.14 12.64 140.73 12.64C141.55 12.64 142.09 12.68 142.41 12.68C142.58 12.68 142.60 12.61 142.60 12.40C142.60 12.24 142.58 12.18 142.41 12.18L141.44 12.18C141.34 12.18 141.32 9.72 141.32 8.22C141.32 8.18 141.32 8.15 141.36 8.09C141.90 7.22 143.85 3.70 143.92 3.70L144.40 3.70C144.56 3.70 144.66 3.68 144.66 3.44C144.66 3.22 144.58 3.19 144.40 3.19C144.17 3.19 143.93 3.23 143.33 3.23C142.74 3.23 142.41 3.19 142.24 3.19C142.04 3.19 142.00 3.25 142.00 3.49C142.00 3.68 142.07 3.70 142.30 3.70L143.02 3.70C143.04 3.70 143.05 3.71 143.05 3.74C143.05 4.05 141.48 6.99 141.11 7.71C140.99 7.92 140.99 7.88 140.88 7.67C140.48 6.89 139.19 4.56 138.89 3.85C138.84 3.71 138.82 3.70 139.01 3.70L139.83 3.70C140.06 3.70 140.08 3.68 140.08 3.49C140.08 3.25 140.04 3.19 139.89 3.19C139.65 3.19 139.03 3.23 138.24 3.23C137.42 3.23 136.93 3.19 136.75 3.19C136.57 3.19 136.50 3.21 136.50 3.44ZM151.79 8.15C151.79 11.17 154.13 12.80 156.38 12.80C159.17 12.80 161.14 10.89 161.14 8.06C161.14 5.33 159.39 3.11 156.59 3.11C153.99 3.11 151.79 5.10 151.79 8.15ZM153.19 7.77C153.19 5.64 154.48 3.58 156.45 3.58C158.69 3.58 159.77 5.81 159.77 7.94C159.77 10.08 158.66 12.32 156.39 12.32C154.41 12.32 153.19 10.28 153.19 7.77ZM169.25 3.51C169.25 3.75 169.33 3.77 169.50 3.77L170.03 3.77C170.09 3.77 170.09 4.12 170.09 4.55C170.09 5.66 170.07 8.96 170.07 9.42C170.07 11.13 170.32 12.80 173.18 12.80C174.26 12.80 175.42 12.38 176.08 12.00C176.33 11.86 176.62 11.72 176.71 11.72C176.97 11.72 177.24 12.74 177.58 12.74C177.90 12.74 177.91 12.35 177.91 12.25C177.91 11.96 177.97 10.08 178.01 8.16C178.07 6.12 178.05 3.77 178.16 3.77L178.49 3.77C178.71 3.77 178.78 3.75 178.78 3.56C178.78 3.32 178.74 3.26 178.54 3.26C178.40 3.26 177.87 3.30 177.45 3.30C177.03 3.30 176.23 3.26 176.01 3.26C175.83 3.26 175.73 3.28 175.73 3.51C175.73 3.75 175.84 3.77 176.01 3.77L176.71 3.77C176.78 3.77 176.79 4.30 176.79 4.87L176.79 9.14C176.79 11.19 176.79 11.12 176.46 11.34C176.06 11.61 175.25 12.08 174.08 12.08C172.10 12.08 171.30 11.17 171.30 9.41C171.30 8.82 171.37 3.77 171.49 3.77L172.40 3.77C172.62 3.77 172.66 3.75 172.66 3.56C172.66 3.32 172.65 3.26 172.45 3.26C172.13 3.26 171.25 3.30 170.83 3.30C170.41 3.30 169.72 3.26 169.50 3.26C169.32 3.26 169.25 3.28 169.25 3.51ZM186.82 3.51C186.82 3.72 186.89 3.79 187.08 3.79L187.89 3.77C187.99 3.77 188.03 6.61 188.03 8.55L188.03 10.42C188.03 11.30 188.02 12.18 187.98 12.18L187.38 12.18C187.15 12.18 187.08 12.19 187.08 12.39C187.08 12.63 187.12 12.68 187.32 12.68C187.45 12.68 188.27 12.64 188.69 12.64C189.11 12.64 189.88 12.68 190.20 12.68C190.37 12.68 190.40 12.61 190.40 12.40C190.40 12.24 190.37 12.18 190.20 12.18L189.39 12.18C189.32 12.18 189.24 9.18 189.24 8.37C189.24 8.30 189.24 8.26 189.35 8.26C189.74 8.26 190.34 8.27 190.64 8.27C192.88 8.32 193.02 10.00 193.02 11.68L193.02 12.49C193.02 12.61 193.07 12.64 193.17 12.64C193.17 12.64 194.61 12.68 195.09 12.68C195.26 12.68 195.31 12.64 195.31 12.53C195.31 12.24 195.26 12.18 195.10 12.18L194.46 12.18C194.36 12.18 194.33 12.14 194.31 11.31C194.22 8.99 192.85 8.34 191.94 8.05C191.80 8.01 191.83 8.01 191.94 7.95C192.53 7.69 193.84 6.94 193.84 5.63C193.84 3.63 192.15 3.21 190.75 3.21C190.43 3.21 189.14 3.29 188.72 3.29C188.30 3.29 187.32 3.26 187.10 3.26C186.91 3.26 186.82 3.28 186.82 3.51ZM189.24 7.80L189.24 4.40C189.24 4.05 189.27 3.68 189.31 3.68C189.52 3.65 189.80 3.65 190.02 3.65C191.32 3.65 192.57 4.47 192.57 5.82C192.57 6.99 192.02 7.57 191.37 7.88C191.32 7.90 191.28 7.90 191.21 7.90C190.74 7.88 190.02 7.88 189.42 7.87C189.25 7.87 189.24 7.85 189.24 7.80ZM212.32 5.01C212.32 5.17 212.51 5.17 212.63 5.17C212.79 5.17 212.83 5.15 212.84 4.97L212.95 3.89C212.97 3.81 213.51 3.75 214.27 3.75L216.26 3.75C216.31 3.75 216.34 4.35 216.34 4.97C216.34 6.43 216.29 12.18 216.16 12.18L215.29 12.18C215.07 12.18 215.03 12.19 215.03 12.39C215.03 12.63 215.04 12.68 215.24 12.68C215.56 12.68 216.54 12.64 216.96 12.64C217.38 12.64 218.32 12.68 218.64 12.68C218.81 12.68 218.83 12.61 218.83 12.40C218.83 12.24 218.81 12.18 218.64 12.18L217.64 12.18C217.62 12.18 217.62 11.76 217.62 11.31C217.62 9.56 217.70 5.96 217.70 5.92C217.71 5.18 217.71 3.75 217.81 3.75L219.42 3.75C220.14 3.75 220.96 3.78 220.96 3.85C220.96 3.99 220.92 4.90 220.92 4.97C220.92 5.12 220.99 5.17 221.17 5.17C221.37 5.17 221.44 5.17 221.44 5.03C221.44 3.93 221.49 3.40 221.49 3.14C221.49 2.94 221.41 2.94 221.21 2.94C221.06 2.94 221.00 2.98 220.99 3.16C220.99 3.23 220.35 3.28 219.51 3.28L214.51 3.28C213.85 3.28 213.04 3.28 213.04 3.21L213.04 3.07C213.04 2.94 212.91 2.94 212.81 2.94C212.59 2.94 212.56 3.00 212.55 3.19C212.49 3.89 212.32 4.97 212.32 5.01ZM229.25 12.39C229.25 12.63 229.28 12.68 229.47 12.68C229.80 12.68 230.76 12.64 231.18 12.64C231.60 12.64 236.11 12.68 236.43 12.68C236.56 12.68 236.71 12.66 236.71 12.49C236.71 12.07 236.75 11.23 236.75 10.53C236.75 10.39 236.60 10.39 236.47 10.39C236.36 10.39 236.24 10.39 236.24 10.51C236.22 11.06 236.22 11.41 236.19 11.76C236.17 12.01 236.17 12.04 236.07 12.04C235.91 12.04 233.28 12.08 231.78 12.08C231.71 12.08 231.67 10.11 231.63 8.26C231.63 8.06 231.67 8.09 231.81 8.09L234.09 8.09C234.79 8.09 234.82 8.20 234.82 8.30L234.82 9.00C234.82 9.14 235.00 9.14 235.12 9.14C235.21 9.14 235.34 9.13 235.34 9.02C235.34 8.83 235.31 8.33 235.31 7.83C235.31 7.32 235.34 6.83 235.34 6.71C235.34 6.59 235.20 6.58 235.10 6.58C234.99 6.58 234.82 6.59 234.82 6.72L234.82 7.45C234.82 7.62 234.37 7.63 234.09 7.63L231.76 7.63C231.64 7.63 231.63 7.63 231.63 7.45C231.62 6.75 231.60 6.06 231.60 5.46C231.60 5.12 231.60 3.71 231.69 3.71C232.92 3.71 235.42 3.75 235.42 3.81C235.42 3.99 235.38 4.83 235.38 4.89C235.38 5.04 235.45 5.10 235.63 5.10C235.83 5.10 235.90 5.08 235.90 4.94C235.90 3.85 235.96 3.36 235.96 3.09C235.96 2.91 235.87 2.90 235.68 2.90C235.48 2.90 235.48 2.95 235.45 3.11C235.44 3.25 235.51 3.25 234.60 3.25C233.98 3.25 231.84 3.29 231.07 3.29C230.58 3.29 229.64 3.25 229.54 3.25C229.42 3.25 229.36 3.30 229.36 3.49C229.36 3.72 229.43 3.74 229.60 3.74L230.26 3.74C230.31 3.74 230.38 4.79 230.38 5.71C230.38 5.80 230.44 8.27 230.44 9.83L230.44 11.17C230.44 11.84 230.41 12.18 230.38 12.18L229.53 12.18C229.31 12.18 229.25 12.21 229.25 12.39ZM244.79 7.91C244.79 11.31 247.16 12.87 249.75 12.87C251.52 12.87 253.30 11.90 253.34 11.59C253.51 10.29 253.57 9.70 253.57 9.66C253.57 9.56 253.53 9.52 253.36 9.51C253.30 9.51 253.25 9.49 253.20 9.49C253.09 9.49 253.04 9.53 253.01 9.70L252.83 11.33C252.81 11.45 251.71 12.24 250.14 12.24C248.01 12.24 246.30 10.29 246.30 7.94C246.30 5.42 247.73 3.54 249.73 3.54C251.58 3.54 252.92 5.01 252.92 5.17C252.92 5.29 252.87 6.40 252.87 6.45C252.87 6.59 252.91 6.64 253.18 6.64C253.37 6.64 253.44 6.62 253.44 6.44C253.44 5.73 253.50 3.92 253.50 3.67C253.50 3.47 253.39 3.44 253.18 3.44C252.95 3.44 252.92 3.50 252.92 3.67L252.92 4.05C252.92 4.16 252.88 4.16 252.76 4.06C252.48 3.86 251.50 3.04 249.83 3.04C246.99 3.04 244.79 4.96 244.79 7.91ZM261.95 12.39C261.95 12.63 261.95 12.68 262.15 12.68C262.47 12.68 263.41 12.64 263.83 12.64C264.25 12.64 265.08 12.68 265.40 12.68C265.57 12.68 265.57 12.61 265.57 12.40C265.57 12.24 265.57 12.18 265.40 12.18L264.47 12.18C264.39 12.18 264.35 9.93 264.35 8.20C264.35 8.01 264.35 8.01 264.47 8.01L269.71 8.01C269.78 8.01 269.79 8.01 269.79 8.18L269.79 9.91C269.79 11.05 269.78 12.18 269.72 12.18L268.95 12.18C268.73 12.18 268.69 12.19 268.69 12.39C268.69 12.63 268.70 12.68 268.90 12.68C269.22 12.68 270.06 12.64 270.48 12.64C270.90 12.64 271.49 12.68 271.81 12.68C271.98 12.68 271.99 12.61 271.99 12.40C271.99 12.24 271.98 12.18 271.81 12.18L271.07 12.18C271.03 12.18 271.01 9.27 271.01 7.04C271.01 5.40 271.01 3.70 271.05 3.70L271.67 3.70C271.89 3.70 271.94 3.68 271.94 3.49C271.94 3.25 271.92 3.19 271.73 3.19C271.59 3.19 270.96 3.23 270.37 3.23C269.70 3.23 269.09 3.19 268.87 3.19C268.67 3.19 268.65 3.22 268.65 3.44C268.65 3.67 268.72 3.70 268.88 3.70L269.68 3.70C269.74 3.70 269.79 4.79 269.79 5.71L269.79 7.42C269.79 7.59 269.79 7.59 269.63 7.59L264.52 7.59C264.35 7.59 264.35 7.59 264.35 7.38C264.35 6.96 264.33 6.23 264.33 5.53C264.33 4.66 264.35 3.70 264.40 3.70L265.17 3.70C265.40 3.70 265.44 3.68 265.44 3.49C265.44 3.25 265.43 3.19 265.23 3.19C264.91 3.19 264.32 3.23 263.72 3.23C263.13 3.23 262.64 3.19 262.42 3.19C262.23 3.19 262.14 3.21 262.14 3.44C262.14 3.68 262.25 3.70 262.42 3.70L263.03 3.70C263.09 3.70 263.10 5.59 263.10 7.18L263.10 8.61C263.10 10.08 263.09 12.18 263.02 12.18L262.21 12.18C261.98 12.18 261.95 12.19 261.95 12.39ZM289.76 12.46C289.76 12.63 289.77 12.70 289.95 12.70C290.11 12.70 291.34 12.64 291.73 12.64C292.59 12.64 293.47 12.70 294.32 12.70C296.94 12.70 299.33 11.07 299.33 7.91C299.33 4.89 297.00 3.07 293.96 3.07C293.40 3.07 292.14 3.23 291.10 3.23C290.63 3.23 290.16 3.22 290.11 3.22C289.93 3.22 289.91 3.32 289.91 3.49C289.91 3.68 289.98 3.70 290.11 3.70L291.07 3.67C291.10 3.67 291.10 4.20 291.10 4.72C291.10 5.91 291.02 12.21 290.93 12.21L290.04 12.21C289.86 12.21 289.76 12.22 289.76 12.46ZM292.33 11.40C292.33 9.46 292.33 7.52 292.35 5.60C292.35 5.03 292.39 3.61 292.43 3.60C292.73 3.53 293.31 3.51 293.66 3.51C296.23 3.51 297.84 5.75 297.84 7.73C297.84 8.95 297.79 12.25 293.12 12.25C292.85 12.25 292.45 12.25 292.35 12.21C292.33 12.19 292.33 11.79 292.33 11.40ZM307.44 3.51C307.44 3.72 307.51 3.79 307.71 3.79L308.52 3.77C308.62 3.77 308.66 6.61 308.66 8.55L308.66 10.42C308.66 11.30 308.64 12.18 308.60 12.18L308 12.18C307.78 12.18 307.71 12.19 307.71 12.39C307.71 12.63 307.75 12.68 307.94 12.68C308.07 12.68 308.90 12.64 309.32 12.64C309.74 12.64 310.51 12.68 310.83 12.68C311.00 12.68 311.02 12.61 311.02 12.40C311.02 12.24 311.00 12.18 310.83 12.18L310.02 12.18C309.95 12.18 309.86 9.18 309.86 8.37C309.86 8.30 309.86 8.26 309.97 8.26C310.37 8.26 310.97 8.27 311.26 8.27C313.50 8.32 313.64 10.00 313.64 11.68L313.64 12.49C313.64 12.61 313.70 12.64 313.80 12.64C313.80 12.64 315.24 12.68 315.71 12.68C315.88 12.68 315.94 12.64 315.94 12.53C315.94 12.24 315.88 12.18 315.73 12.18L315.08 12.18C314.99 12.18 314.96 12.14 314.93 11.31C314.85 8.99 313.47 8.34 312.56 8.05C312.42 8.01 312.45 8.01 312.56 7.95C313.15 7.69 314.47 6.94 314.47 5.63C314.47 3.63 312.77 3.21 311.37 3.21C311.05 3.21 309.76 3.29 309.34 3.29C308.92 3.29 307.94 3.26 307.72 3.26C307.54 3.26 307.44 3.28 307.44 3.51ZM309.86 7.80L309.86 4.40C309.86 4.05 309.89 3.68 309.93 3.68C310.14 3.65 310.42 3.65 310.65 3.65C311.95 3.65 313.19 4.47 313.19 5.82C313.19 6.99 312.65 7.57 311.99 7.88C311.95 7.90 311.91 7.90 311.84 7.90C311.36 7.88 310.65 7.88 310.04 7.87C309.88 7.87 309.86 7.85 309.86 7.80ZM323.41 12.39C323.41 12.63 323.44 12.68 323.64 12.68C323.96 12.68 324.93 12.64 325.35 12.64C325.77 12.64 330.27 12.68 330.60 12.68C330.72 12.68 330.88 12.66 330.88 12.49C330.88 12.07 330.92 11.23 330.92 10.53C330.92 10.39 330.76 10.39 330.64 10.39C330.53 10.39 330.40 10.39 330.40 10.51C330.39 11.06 330.39 11.41 330.36 11.76C330.33 12.01 330.33 12.04 330.23 12.04C330.08 12.04 327.45 12.08 325.95 12.08C325.88 12.08 325.84 10.11 325.79 8.26C325.79 8.06 325.84 8.09 325.98 8.09L328.26 8.09C328.96 8.09 328.99 8.20 328.99 8.30L328.99 9.00C328.99 9.14 329.17 9.14 329.28 9.14C329.38 9.14 329.50 9.13 329.50 9.02C329.50 8.83 329.48 8.33 329.48 7.83C329.48 7.32 329.50 6.83 329.50 6.71C329.50 6.59 329.36 6.58 329.27 6.58C329.15 6.58 328.99 6.59 328.99 6.72L328.99 7.45C328.99 7.62 328.54 7.63 328.26 7.63L325.92 7.63C325.81 7.63 325.79 7.63 325.79 7.45C325.78 6.75 325.77 6.06 325.77 5.46C325.77 5.12 325.77 3.71 325.85 3.71C327.08 3.71 329.59 3.75 329.59 3.81C329.59 3.99 329.55 4.83 329.55 4.89C329.55 5.04 329.62 5.10 329.80 5.10C329.99 5.10 330.06 5.08 330.06 4.94C330.06 3.85 330.12 3.36 330.12 3.09C330.12 2.91 330.04 2.90 329.84 2.90C329.64 2.90 329.64 2.95 329.62 3.11C329.60 3.25 329.67 3.25 328.76 3.25C328.15 3.25 326.00 3.29 325.23 3.29C324.74 3.29 323.81 3.25 323.71 3.25C323.58 3.25 323.53 3.30 323.53 3.49C323.53 3.72 323.60 3.74 323.76 3.74L324.42 3.74C324.48 3.74 324.55 4.79 324.55 5.71C324.55 5.80 324.60 8.27 324.60 9.83L324.60 11.17C324.60 11.84 324.58 12.18 324.55 12.18L323.69 12.18C323.47 12.18 323.41 12.21 323.41 12.39ZM338.74 12.39C338.74 12.63 338.74 12.68 338.94 12.68C339.11 12.68 339.43 12.64 340.00 12.64C340.62 12.64 341.17 12.68 341.32 12.68C341.49 12.68 341.49 12.61 341.49 12.40C341.49 12.24 341.49 12.18 341.32 12.18L340.24 12.18C340.24 12.18 340.23 12.18 340.23 12.17C340.24 11.87 341.01 9.90 341.36 9.02C341.43 8.83 341.45 8.79 341.66 8.79L344.48 8.79C344.62 8.79 344.62 8.81 344.69 9.03C344.96 9.77 345.67 11.89 345.67 12.17C345.67 12.18 345.66 12.18 345.66 12.18L344.89 12.18C344.67 12.18 344.65 12.19 344.65 12.39C344.65 12.63 344.67 12.68 344.83 12.68C345.16 12.68 346.02 12.64 346.44 12.64C346.86 12.64 347.54 12.68 347.75 12.68C347.89 12.68 347.90 12.61 347.90 12.40C347.90 12.24 347.89 12.18 347.75 12.18L347.26 12.18C347.16 12.18 346.14 9.34 345.58 7.78L343.90 3.07C343.88 3.00 343.81 2.94 343.73 2.94C343.60 2.94 343.50 3.16 343.42 3.35C343.27 3.71 343.03 3.84 342.92 4.13L341.43 7.57C341.25 8.01 339.54 12.18 339.42 12.18L339.00 12.18C338.77 12.18 338.74 12.19 338.74 12.39ZM341.64 8.33C341.64 8.30 341.67 8.23 341.71 8.13L343.08 4.77C343.13 4.66 343.15 4.61 343.18 4.61C343.20 4.61 343.21 4.63 343.25 4.77L344.41 8.18C344.44 8.25 344.46 8.29 344.46 8.32C344.46 8.36 344.43 8.37 344.33 8.37L341.82 8.37C341.64 8.37 341.64 8.34 341.64 8.33ZM355.59 12.39C355.59 12.63 355.61 12.68 355.81 12.68C356.05 12.68 356.55 12.64 356.97 12.64C357.39 12.64 357.88 12.68 358.20 12.68C358.37 12.68 358.40 12.61 358.40 12.40C358.40 12.24 358.37 12.18 358.20 12.18L357.24 12.18C357.18 12.18 357.17 11.54 357.17 10.79C357.17 8.96 357.21 6.13 357.28 4.28C357.31 3.88 357.34 3.91 357.48 4.27L360.74 12.32C360.84 12.54 360.91 12.74 361.02 12.74C361.12 12.74 361.19 12.63 361.27 12.45C361.61 11.79 361.79 11.75 362.05 11.09L364.64 4.47C364.77 4.16 364.81 4.02 364.83 4.47C364.85 5.66 364.90 8.47 364.90 9.74C364.90 10.99 364.85 12.18 364.80 12.18L364.17 12.18C363.94 12.18 363.87 12.19 363.87 12.39C363.87 12.63 363.90 12.68 364.10 12.68C364.29 12.68 364.99 12.64 365.60 12.64C366.02 12.64 366.77 12.68 367.09 12.68C367.26 12.68 367.29 12.61 367.29 12.40C367.29 12.22 367.23 12.18 367.07 12.18L366.34 12.18C366.23 12.18 366.13 8.44 366.13 6.03L366.13 4.77C366.13 4.17 366.16 3.77 366.20 3.70L366.86 3.70C367.08 3.70 367.12 3.68 367.12 3.49C367.12 3.25 367.11 3.19 366.91 3.19C366.59 3.19 365.90 3.23 365.48 3.23L364.81 3.23C364.59 3.23 364.56 3.29 364.45 3.58L361.70 10.72C361.62 10.95 361.59 11.02 361.48 10.74L358.54 3.40C358.47 3.22 358.41 3.19 358.27 3.19C358.19 3.19 357.70 3.23 357.39 3.23C356.89 3.23 356.03 3.19 355.84 3.19C355.70 3.19 355.70 3.26 355.70 3.47C355.70 3.64 355.70 3.70 355.84 3.70L356.54 3.70C356.80 3.70 356.80 3.72 356.80 3.84C356.80 4.82 356.59 9.94 356.55 10.79C356.51 11.55 356.51 12.18 356.45 12.18L355.88 12.18C355.66 12.18 355.59 12.19 355.59 12.39ZM375.40 5.77C375.40 9.07 380.38 8.20 380.38 10.65C380.38 11.59 379.54 12.31 378.56 12.31C377.73 12.31 376.14 11.83 376.11 11.47L376.03 10.15C376.01 9.97 375.94 9.91 375.76 9.91L375.69 9.91C375.48 9.91 375.48 10.00 375.48 10.12C375.48 10.32 375.59 11.66 375.62 12.17C375.63 12.38 376.89 12.85 378.43 12.85C380.00 12.85 381.61 11.87 381.61 10.11C381.61 6.79 376.64 7.87 376.64 5.32C376.64 4.31 377.43 3.56 378.46 3.56C379.48 3.56 380.58 4.58 380.58 4.89C380.58 5.01 380.53 5.73 380.53 5.78C380.53 5.92 380.58 5.99 380.84 5.99C381.08 5.99 381.09 5.94 381.09 5.75C381.09 5.04 381.18 3.68 381.18 3.53C381.18 3.30 381.14 3.29 380.87 3.29C380.65 3.29 380.63 3.32 380.62 3.53C380.62 3.61 380.60 3.78 380.56 3.78C380.51 3.78 380.42 3.74 380.35 3.68C379.55 3.14 378.94 3.08 378.43 3.08C376.91 3.08 375.40 4.17 375.40 5.77Z"></path></g></svg>