<svg data-v-423bf9ae="" xmlns="http://www.w3.org/2000/svg" viewBox="0 0 305.3581853407405 60" class="font"><!----><!----><!----><g data-v-423bf9ae="" id="7ad8c62d-dc0e-4baf-924a-c169975f5ffa" fill="black" transform="matrix(5.730659401617148,0,0,5.730659401617148,-3.6389653522400636,-19.19770797206202)"><path d="M8.11 13.73L8.11 13.73Q7.70 13.71 7.55 13.47Q7.40 13.23 7.37 12.81Q7.34 12.39 7.40 11.81Q7.45 11.22 7.45 10.54L7.45 10.54Q7.46 9.19 7.55 8.07Q7.64 6.96 7.60 5.91L7.60 5.91Q7.60 5.82 7.60 5.76Q7.60 5.69 7.59 5.62L7.59 5.62Q7.52 5.85 7.43 6.15Q7.34 6.44 7.22 6.79L7.22 6.79Q6.97 7.56 6.73 8.37Q6.49 9.17 6.27 9.93Q6.04 10.69 5.84 11.34Q5.65 11.99 5.50 12.43L5.50 12.43Q5.35 12.87 5.20 13.08Q5.06 13.29 4.92 13.37Q4.77 13.45 4.63 13.44Q4.48 13.43 4.35 13.41L4.35 13.41Q4.29 12.95 4.14 12.32Q3.99 11.69 3.83 11.12L3.83 11.12Q3.64 10.45 3.40 9.75L3.40 9.75Q3.09 8.54 2.75 7.55Q2.41 6.55 2.21 5.91L2.21 5.91Q2.13 6.60 2.09 7.51Q2.05 8.41 2.04 9.31Q2.02 10.21 2.05 11.01Q2.08 11.81 2.13 12.30L2.13 12.30Q2.15 12.51 2.19 12.71L2.19 12.71Q2.21 12.89 2.26 13.08Q2.31 13.26 2.38 13.41L2.38 13.41Q2.31 13.47 2.21 13.51Q2.12 13.55 2.01 13.58L2.01 13.58Q1.89 13.62 1.75 13.64L1.75 13.64Q1.22 13.75 0.98 13.62Q0.74 13.48 0.68 13.07L0.68 13.07Q0.66 12.87 0.64 12.30Q0.63 11.74 0.64 11.01Q0.64 10.28 0.67 9.47Q0.70 8.67 0.75 7.97L0.75 7.97Q0.81 7.41 0.86 6.75L0.86 6.75Q0.92 6.18 0.97 5.43Q1.03 4.68 1.09 3.80L1.09 3.80Q1.13 3.72 1.23 3.66Q1.33 3.60 1.44 3.55L1.44 3.55Q1.56 3.50 1.71 3.47L1.71 3.47Q1.94 3.43 2.12 3.40L2.12 3.40Q2.27 3.38 2.40 3.36Q2.53 3.35 2.50 3.36L2.50 3.36Q2.68 3.73 2.78 3.97Q2.87 4.21 2.97 4.54Q3.08 4.87 3.23 5.40Q3.39 5.93 3.69 6.89L3.69 6.89Q4.10 8.22 4.40 9.20Q4.69 10.19 4.84 10.71L4.84 10.71Q4.94 10.53 5.03 10.32Q5.13 10.10 5.23 9.80Q5.33 9.50 5.45 9.10Q5.56 8.70 5.71 8.13L5.71 8.13Q5.91 7.52 6.11 6.81L6.11 6.81Q6.28 6.21 6.47 5.43Q6.67 4.66 6.85 3.83L6.85 3.83Q7.29 3.65 7.56 3.56Q7.83 3.47 7.98 3.42L7.98 3.42Q8.16 3.36 8.24 3.35L8.24 3.35Q8.33 3.36 8.41 3.43L8.41 3.43Q8.48 3.50 8.57 3.62Q8.67 3.75 8.78 3.99L8.78 3.99Q8.78 4.18 8.78 4.61Q8.78 5.03 8.78 5.58Q8.78 6.14 8.76 6.78Q8.75 7.42 8.74 8.07Q8.74 8.72 8.73 9.34Q8.72 9.95 8.71 10.43L8.71 10.43Q8.68 11.16 8.70 11.66Q8.72 12.17 8.78 12.50Q8.85 12.84 8.95 13.04Q9.05 13.25 9.20 13.37L9.20 13.37Q9.16 13.40 9.04 13.46Q8.93 13.52 8.76 13.58Q8.60 13.64 8.42 13.69Q8.24 13.73 8.11 13.73ZM14 11.87L14 11.87Q14.03 11.96 14.08 12.04L14.08 12.04Q14.12 12.11 14.20 12.17Q14.27 12.24 14.38 12.25L14.38 12.25Q14.29 12.44 14.19 12.51L14.19 12.51Q14.14 12.55 14.10 12.56L14.10 12.56Q13.97 12.61 13.73 12.61Q13.48 12.61 13.25 12.46L13.25 12.46Q13.17 12.39 13.10 12.25L13.10 12.25Q13.03 12.14 12.98 11.94Q12.93 11.74 12.91 11.43L12.91 11.43Q12.71 11.84 12.48 12.08Q12.24 12.32 12.00 12.43L12.00 12.43Q11.74 12.58 11.47 12.61L11.47 12.61Q11.13 12.63 10.82 12.49Q10.51 12.35 10.30 12.05Q10.09 11.76 9.98 11.33Q9.87 10.91 9.91 10.38L9.91 10.38Q9.95 9.82 10.13 9.38Q10.31 8.94 10.55 8.60Q10.80 8.26 11.07 8.02Q11.35 7.78 11.60 7.62Q11.85 7.46 12.04 7.39Q12.22 7.31 12.28 7.30L12.28 7.30Q12.43 7.26 12.54 7.27Q12.65 7.29 12.73 7.40L12.73 7.40Q12.76 7.44 12.80 7.49L12.80 7.49Q12.82 7.55 12.87 7.64Q12.91 7.72 12.93 7.83L12.93 7.83Q12.61 7.98 12.32 8.17Q12.03 8.35 11.79 8.61Q11.55 8.87 11.38 9.24Q11.20 9.61 11.10 10.14L11.10 10.14Q10.96 10.81 11.18 11.22Q11.39 11.63 11.76 11.57L11.76 11.57Q11.98 11.50 12.18 11.31L12.18 11.31Q12.36 11.14 12.56 10.81Q12.76 10.49 12.93 9.91L12.93 9.91Q13.00 9.09 13.05 8.62Q13.10 8.15 13.14 7.90L13.14 7.90Q13.19 7.62 13.22 7.52L13.22 7.52Q13.26 7.45 13.38 7.39Q13.51 7.33 13.66 7.29Q13.81 7.25 13.93 7.24Q14.05 7.23 14.10 7.25L14.10 7.25Q14.12 7.26 14.12 7.58Q14.12 7.90 14.10 8.39Q14.08 8.87 14.05 9.44Q14.03 10.01 14.01 10.51Q13.99 11.02 13.98 11.40Q13.97 11.77 14 11.87ZM18.88 8.37L18.88 8.37Q18.88 8.56 18.78 8.76Q18.68 8.96 18.53 9.13Q18.38 9.31 18.19 9.44Q18.01 9.57 17.84 9.60L17.84 9.60Q17.95 9.17 17.91 8.94Q17.87 8.71 17.77 8.60L17.77 8.60Q17.66 8.48 17.50 8.46L17.50 8.46Q17.25 8.46 17.03 8.74Q16.80 9.02 16.64 9.43Q16.47 9.83 16.38 10.29Q16.28 10.75 16.28 11.12L16.28 11.12Q16.27 11.38 16.30 11.62L16.30 11.62Q16.31 11.83 16.34 12.04Q16.38 12.26 16.45 12.39L16.45 12.39Q16.37 12.46 16.18 12.55Q16.00 12.65 15.80 12.67Q15.60 12.70 15.44 12.61Q15.29 12.51 15.27 12.20L15.27 12.20Q15.24 11.89 15.24 11.52Q15.23 11.14 15.24 10.77Q15.24 10.39 15.26 10.02Q15.27 9.65 15.30 9.34L15.30 9.34Q15.33 8.74 15.33 8.41Q15.33 8.08 15.31 7.78L15.31 7.78Q15.31 7.72 15.50 7.62Q15.68 7.52 15.91 7.44Q16.13 7.36 16.32 7.34Q16.52 7.33 16.52 7.42L16.52 7.42Q16.52 7.57 16.48 8.02Q16.45 8.46 16.39 8.94L16.39 8.94Q16.49 8.68 16.65 8.38Q16.80 8.08 17.01 7.82Q17.21 7.56 17.47 7.39Q17.73 7.22 18.05 7.22L18.05 7.22Q18.29 7.22 18.45 7.37Q18.61 7.52 18.70 7.71Q18.80 7.90 18.84 8.09Q18.88 8.29 18.88 8.37ZM22.08 9.30L22.08 9.30Q22.37 9.42 22.63 9.69Q22.89 9.95 22.96 10.49L22.96 10.49Q23.01 10.95 23.11 11.32Q23.20 11.69 23.38 11.98Q23.56 12.28 23.85 12.50Q24.14 12.73 24.61 12.89L24.61 12.89Q24.49 13.00 24.32 13.07Q24.14 13.14 23.99 13.17L23.99 13.17Q23.82 13.22 23.63 13.22L23.63 13.22Q23.17 13.26 22.89 13.10Q22.60 12.95 22.44 12.65Q22.27 12.35 22.19 11.95Q22.11 11.55 22.07 11.13L22.07 11.13Q22.05 10.95 22.03 10.76Q22.00 10.57 21.93 10.39Q21.86 10.21 21.75 10.06Q21.63 9.91 21.45 9.83L21.45 9.83Q21.15 10.06 20.90 10.23Q20.64 10.40 20.45 10.51L20.45 10.51Q20.47 11.25 20.53 11.73Q20.59 12.21 20.70 12.37L20.70 12.37Q20.60 12.44 20.51 12.49Q20.41 12.54 20.34 12.56L20.34 12.56Q20.25 12.61 20.17 12.62L20.17 12.62Q19.89 12.70 19.68 12.60Q19.47 12.50 19.46 12.06L19.46 12.06L19.37 4.07Q19.37 3.96 19.58 3.85Q19.80 3.73 20.06 3.66Q20.32 3.60 20.53 3.60Q20.74 3.60 20.73 3.72L20.73 3.72Q20.69 4.66 20.64 5.50Q20.60 6.33 20.58 6.97L20.58 6.97Q20.54 7.72 20.51 8.34L20.51 8.34Q20.48 8.71 20.47 9.05Q20.47 9.39 20.45 9.71L20.45 9.71Q20.71 9.50 21 9.26Q21.29 9.01 21.55 8.71Q21.81 8.41 21.98 8.06Q22.16 7.71 22.19 7.31L22.19 7.31Q22.34 7.21 22.50 7.13Q22.65 7.05 22.78 7.01L22.78 7.01Q22.93 6.96 23.05 6.96L23.05 6.96Q23.37 6.95 23.42 7.10L23.42 7.10Q23.46 7.21 23.41 7.42Q23.37 7.63 23.21 7.92Q23.05 8.22 22.78 8.57Q22.50 8.91 22.08 9.30ZM26.10 12.71L26.10 12.71Q25.14 12.71 24.62 12.07Q24.10 11.43 24.10 10.39L24.10 10.39Q24.10 9.67 24.32 9.03Q24.53 8.39 24.88 7.93Q25.24 7.46 25.71 7.20Q26.18 6.93 26.70 6.93L26.70 6.93Q27.21 6.93 27.56 7.29Q27.92 7.66 27.92 8.33L27.92 8.33Q27.92 8.76 27.73 9.19Q27.54 9.63 27.23 9.96Q26.92 10.29 26.55 10.50Q26.18 10.71 25.84 10.71L25.84 10.71Q25.62 10.71 25.47 10.65Q25.32 10.60 25.20 10.49L25.20 10.49Q25.24 11.27 25.54 11.57Q25.84 11.88 26.32 11.88L26.32 11.88Q26.65 11.88 26.90 11.74Q27.15 11.61 27.33 11.43Q27.51 11.25 27.62 11.07Q27.73 10.88 27.77 10.79L27.77 10.79Q27.81 10.71 27.91 10.71Q28.01 10.71 28.01 10.87L28.01 10.87Q28.01 11.02 27.91 11.33Q27.81 11.63 27.58 11.94Q27.34 12.25 26.98 12.48Q26.62 12.71 26.10 12.71ZM26.73 7.52L26.73 7.52Q26.65 7.52 26.42 7.69Q26.20 7.86 25.94 8.19Q25.69 8.52 25.48 8.98Q25.27 9.43 25.21 10.01L25.21 10.01Q26.03 9.82 26.51 9.41Q26.99 9.00 26.99 8.20L26.99 8.20Q26.99 7.81 26.89 7.66Q26.80 7.52 26.73 7.52ZM33.95 6.48L33.95 6.48Q33.80 6.45 33.54 6.43Q33.29 6.40 33.03 6.38L33.03 6.38Q32.73 6.37 32.39 6.37L32.39 6.37Q32.05 6.34 31.53 6.36Q31.02 6.38 30.46 6.38L30.46 6.38Q30.45 6.74 30.41 7.11Q30.38 7.48 30.35 7.83L30.35 7.83Q30.28 8.49 30.24 9.17Q30.19 9.86 30.19 10.47Q30.19 11.09 30.26 11.59Q30.34 12.09 30.54 12.37L30.54 12.37Q30.38 12.50 30.19 12.56Q30.00 12.62 29.85 12.65L29.85 12.65Q29.67 12.69 29.49 12.69L29.49 12.69Q29.33 12.69 29.22 12.58Q29.11 12.47 29.09 12.20L29.09 12.20Q29.07 11.73 29.09 11.26Q29.11 10.79 29.14 10.27Q29.18 9.75 29.22 9.15Q29.26 8.56 29.30 7.85L29.30 7.85Q29.34 7.11 29.34 6.41L29.34 6.41Q28.82 6.43 28.46 6.43Q28.11 6.43 28.07 6.41L28.07 6.41Q28.03 6.38 27.97 6.29L27.97 6.29Q27.92 6.21 27.83 6.04Q27.74 5.88 27.60 5.58L27.60 5.58Q27.86 5.58 28.17 5.58Q28.48 5.58 28.74 5.56L28.74 5.56Q29.04 5.55 29.34 5.54L29.34 5.54Q29.33 5.32 29.33 5.07L29.33 5.07Q29.31 4.88 29.31 4.64Q29.31 4.40 29.30 4.20L29.30 4.20Q29.30 4.12 29.50 4.00Q29.70 3.88 29.93 3.79Q30.16 3.69 30.36 3.66Q30.56 3.64 30.56 3.76L30.56 3.76Q30.56 3.88 30.55 4.35Q30.54 4.83 30.52 5.50L30.52 5.50Q30.65 5.50 30.72 5.48L30.72 5.48Q31.45 5.46 31.89 5.42Q32.33 5.39 32.62 5.41Q32.91 5.44 33.13 5.55Q33.35 5.66 33.62 5.91L33.62 5.91Q33.71 5.99 33.78 6.08L33.78 6.08Q33.85 6.17 33.90 6.27Q33.95 6.37 33.95 6.48ZM35.52 8.00L35.52 8.00Q35.63 8.08 35.66 8.22Q35.68 8.37 35.68 8.51Q35.67 8.65 35.64 8.79Q35.62 8.93 35.62 9.01L35.62 9.01Q35.45 8.96 35.12 8.94Q34.78 8.93 34.44 8.91L34.44 8.91L33.59 8.91Q33.14 8.94 32.73 8.98L32.73 8.98Q32.38 9.02 32.03 9.08Q31.69 9.13 31.51 9.24L31.51 9.24Q31.40 9.15 31.36 8.89Q31.32 8.64 31.42 8.31L31.42 8.31Q31.65 8.24 31.96 8.19Q32.28 8.13 32.55 8.09L32.55 8.09Q32.88 8.04 33.21 8.00L33.21 8.00Q34.11 7.85 34.70 7.83Q35.29 7.82 35.52 8.00ZM36.82 9.60L36.82 9.60Q36.65 9.65 36.48 9.58Q36.31 9.50 36.18 9.34Q36.04 9.17 35.96 8.96Q35.89 8.74 35.89 8.49L35.89 8.49Q36.07 8.46 36.27 8.43Q36.48 8.39 36.65 8.37L36.65 8.37Q36.86 8.34 37.05 8.31L37.05 8.31Q37.06 7.52 37.08 6.80Q37.11 6.08 37.13 5.52Q37.15 4.95 37.17 4.56Q37.19 4.17 37.20 4.03L37.20 4.03Q37.20 3.96 37.27 3.90L37.27 3.90Q37.38 3.81 37.59 3.66Q37.80 3.51 38.08 3.39L38.08 3.39Q38.31 3.29 38.38 3.45Q38.46 3.61 38.46 4.05L38.46 4.05Q38.43 4.66 38.40 5.70Q38.38 6.74 38.35 8.15L38.35 8.15Q38.57 8.12 38.77 8.11Q38.98 8.09 39.21 8.08L39.21 8.08Q39.84 8.05 40.43 8.01Q41.03 7.97 41.48 8.01L41.48 8.01Q41.55 6.06 41.52 5.08Q41.49 4.10 41.49 3.92L41.49 3.92Q41.49 3.84 41.67 3.73Q41.85 3.62 42.06 3.53Q42.27 3.45 42.45 3.41Q42.63 3.38 42.64 3.43L42.64 3.43Q42.66 3.53 42.65 3.91Q42.64 4.29 42.64 4.98Q42.63 5.67 42.64 6.70Q42.64 7.72 42.68 9.09L42.68 9.09Q42.66 9.72 42.66 10.40L42.66 10.40Q42.66 10.99 42.68 11.72Q42.71 12.44 42.81 13.18L42.81 13.18Q42.63 13.33 42.42 13.41Q42.22 13.49 42.03 13.55L42.03 13.55Q41.81 13.60 41.59 13.63L41.59 13.63Q41.47 13.64 41.39 13.58Q41.32 13.52 41.29 13.43Q41.26 13.34 41.25 13.25Q41.25 13.15 41.25 13.07L41.25 13.07Q41.25 12.89 41.25 12.74Q41.26 12.58 41.28 12.48L41.28 12.48Q41.30 11.89 41.34 11.06Q41.38 10.23 41.43 9.20L41.43 9.20Q41.33 9.19 41.25 9.18Q41.17 9.17 41.06 9.16L41.06 9.16Q40.44 9.12 39.72 9.16Q39.01 9.20 38.32 9.30L38.32 9.30Q38.31 9.97 38.32 10.56Q38.34 11.16 38.36 11.64Q38.38 12.13 38.40 12.48Q38.43 12.82 38.46 12.99L38.46 12.99Q38.47 13.13 38.42 13.18L38.42 13.18Q38.36 13.25 38.26 13.36Q38.16 13.47 38.00 13.57Q37.84 13.67 37.63 13.75Q37.41 13.82 37.12 13.82L37.12 13.82Q36.98 13.82 36.98 13.70L36.98 13.70Q36.98 13.52 36.99 13.14Q37.00 12.76 37.00 12.21Q37.01 11.66 37.02 10.99Q37.02 10.31 37.04 9.54L37.04 9.54Q36.97 9.56 36.92 9.57Q36.87 9.58 36.82 9.60ZM47.04 7.48L47.04 7.48Q47.04 7.33 47.23 7.25Q47.41 7.18 47.63 7.18Q47.84 7.18 48.02 7.25Q48.19 7.33 48.18 7.45L48.18 7.45Q48.17 7.55 48.15 7.83Q48.14 8.11 48.12 8.49Q48.10 8.87 48.07 9.31Q48.04 9.75 48.02 10.17Q48.00 10.58 48.00 10.94Q47.99 11.29 47.99 11.48L47.99 11.48Q47.99 11.73 48.02 11.94L48.02 11.94Q48.04 12.11 48.08 12.28Q48.13 12.46 48.21 12.52L48.21 12.52Q48.10 12.56 47.98 12.58Q47.87 12.59 47.77 12.61L47.77 12.61Q47.66 12.62 47.55 12.62L47.55 12.62Q47.32 12.62 47.16 12.52Q47.00 12.43 47.00 12.13L47.00 12.13Q47.00 11.98 47.02 11.69Q47.04 11.40 47.07 11.07L47.07 11.07Q46.98 11.36 46.84 11.66Q46.70 11.96 46.50 12.20Q46.31 12.43 46.06 12.58Q45.81 12.73 45.50 12.73L45.50 12.73Q45.14 12.73 44.85 12.58Q44.56 12.43 44.34 12.15Q44.12 11.87 44.01 11.46Q43.90 11.05 43.93 10.51L43.93 10.51Q43.93 10.10 43.94 9.64L43.94 9.64Q43.96 9.24 43.98 8.72Q44.01 8.20 44.08 7.64L44.08 7.64Q44.09 7.59 44.27 7.51Q44.45 7.42 44.67 7.37Q44.88 7.31 45.09 7.33Q45.29 7.34 45.39 7.49L45.39 7.49Q45.32 7.74 45.25 8.07Q45.19 8.41 45.13 8.76Q45.08 9.12 45.05 9.46Q45.02 9.80 45.02 10.09L45.02 10.09Q45.02 10.35 45.05 10.66Q45.08 10.96 45.15 11.23Q45.23 11.50 45.37 11.68Q45.51 11.85 45.75 11.85L45.75 11.85Q46.01 11.85 46.20 11.63Q46.40 11.40 46.54 11.05Q46.68 10.69 46.77 10.23Q46.87 9.78 46.93 9.32Q46.99 8.87 47.01 8.46Q47.03 8.04 47.04 7.75L47.04 7.75L47.04 7.48ZM49.31 4.05L49.31 4.05Q49.42 3.90 49.55 3.79Q49.68 3.68 49.82 3.61L49.82 3.61Q49.97 3.54 50.13 3.50L50.13 3.50Q50.26 3.47 50.37 3.47L50.37 3.47Q50.46 3.47 50.55 3.49Q50.64 3.50 50.70 3.55L50.70 3.55Q50.67 4.21 50.65 4.67Q50.63 5.13 50.61 5.47Q50.59 5.81 50.57 6.08Q50.56 6.34 50.54 6.62Q50.52 6.89 50.49 7.21Q50.46 7.53 50.44 7.98L50.44 7.98Q50.41 8.27 50.39 8.57Q50.38 8.86 50.37 9.16L50.37 9.16Q50.49 8.82 50.67 8.45Q50.86 8.08 51.11 7.78Q51.35 7.48 51.67 7.28Q51.98 7.08 52.35 7.08L52.35 7.08Q52.87 7.08 53.18 7.38Q53.50 7.68 53.66 8.11Q53.83 8.54 53.87 9.02Q53.92 9.50 53.92 9.87L53.92 9.87Q53.92 10.23 53.83 10.71Q53.74 11.20 53.52 11.64Q53.29 12.09 52.92 12.40Q52.55 12.71 51.99 12.71L51.99 12.71Q51.60 12.71 51.32 12.55Q51.05 12.39 50.87 12.17Q50.70 11.95 50.62 11.73Q50.54 11.51 50.54 11.42L50.54 11.42Q50.54 11.32 50.61 11.19Q50.68 11.06 50.78 10.94Q50.87 10.83 50.98 10.75Q51.09 10.68 51.16 10.69L51.16 10.69Q51.13 11.14 51.22 11.38Q51.31 11.62 51.43 11.73L51.43 11.73Q51.58 11.87 51.76 11.88L51.76 11.88Q52.02 11.88 52.22 11.63Q52.42 11.39 52.55 11.03Q52.69 10.68 52.77 10.26Q52.84 9.84 52.84 9.52L52.84 9.52Q52.84 9.27 52.81 8.99Q52.77 8.71 52.71 8.47Q52.64 8.23 52.51 8.08Q52.39 7.93 52.21 7.93L52.21 7.93Q51.91 7.93 51.58 8.27Q51.26 8.61 50.98 9.17Q50.71 9.72 50.53 10.42Q50.35 11.12 50.37 11.84L50.37 11.84Q50.37 12.03 50.39 12.17Q50.41 12.32 50.44 12.43L50.44 12.43Q50.11 12.56 49.92 12.59L49.92 12.59Q49.81 12.62 49.74 12.61L49.74 12.61Q49.55 12.61 49.42 12.50Q49.30 12.39 49.27 12.03L49.27 12.03Q49.26 11.91 49.26 11.35Q49.26 10.80 49.26 10.01Q49.26 9.23 49.27 8.31Q49.27 7.40 49.28 6.55Q49.29 5.70 49.29 5.02Q49.30 4.35 49.31 4.05Z"></path></g><!----><!----></svg>